# xmcd
#
# Track frame offsets:
#	150
#	129753
#	170347
#	212594
#	242524
#
# Disc length: 3489 seconds
#
# Revision: 1
# Processed by: cddbd v1.5.2PL0 Copyright (c) Steve Scherf et al.
# Submitted via: audiograbber 1.83.01
#
DISCID=350d9f05
DTITLE=Micky and The Hartbeats - 68-10-10 The Matrix, San Francisco CA
DYEAR=1900
DGENRE=
TTITLE0=Jam
TTITLE1=It's A Sin
TTITLE2=Next Time You See Me
TTITLE3=The Rub Jam
TTITLE4=Look On Yonder Wall
EXTD=
EXTT0=
EXTT1=
EXTT2=
EXTT3=
EXTT4=
PLAYORDER=
